<?xml version="1.0" encoding="utf-8"?>
<!-- Generator: Adobe Illustrator 19.2.0, SVG Export Plug-In . SVG Version: 6.00 Build 0)  -->
<svg version="1.1" id="Layer_1" xmlns="http://www.w3.org/2000/svg" xmlns:xlink="http://www.w3.org/1999/xlink" x="0px" y="0px"
	 viewBox="0 0 300 95" style="enable-background:new 0 0 300 95;" xml:space="preserve">
<style type="text/css">
	.st0{opacity:0.8;}
</style>
<g class="st0">
	<path d="M3.5,58.1V17.2l8.8-2.4v43.2H3.5z"/>
	<path d="M28.9,26.6C37,26.6,44,31.5,44,42.8C44,54.1,37,59,28.9,59c-8.2,0-15.2-4.9-15.2-16.2C13.7,31.5,20.7,26.6,28.9,26.6z
		 M28.9,51.6c4.1,0,6.4-3.1,6.4-8.8c0-5.7-2.3-8.8-6.4-8.8c-4.1,0-6.4,3.1-6.4,8.8C22.5,48.5,24.8,51.6,28.9,51.6z"/>
	<path d="M60,70.4c-6.4,0-13.8-3.1-13.8-10.4l8.5,0.8c0.5,1.9,2.2,2.8,5.2,2.8c4.4,0,6.2-2.6,6.2-6.6v-1.6c-1.8,2.3-4.6,2.9-7.1,2.9
		c-7.3,0-13.5-5.2-13.5-15.9c0-10.7,5.9-15.9,13.2-15.9c3.5,0,6.2,1.5,8,4.5v-3.6H75v29.4C75,64.5,70.7,70.4,60,70.4z M60.6,33.9
		c-3.5,0-6.2,2.5-6.2,8.5c0,6,2.5,8.5,6.2,8.5s6.2-2.5,6.2-8.5C66.9,36.5,64.1,33.9,60.6,33.9z"/>
	<path d="M92.6,26.6c8.2,0,15.2,4.9,15.2,16.2c0,11.3-7,16.2-15.2,16.2c-8.2,0-15.2-4.9-15.2-16.2C77.4,31.5,84.4,26.6,92.6,26.6z
		 M92.6,51.6c4.1,0,6.4-3.1,6.4-8.8c0-5.7-2.3-8.8-6.4-8.8c-4.1,0-6.4,3.1-6.4,8.8C86.2,48.5,88.5,51.6,92.6,51.6z"/>
	<path d="M126.9,57.7c-1.2,0.6-4.5,1-5.6,1c-6.4,0-8.9-3.5-8.9-9.5V34.5H108v-7h4.4v-6.3l8.8-2.5v8.8h5.8v7h-5.8v12
		c0,2.6,0,4.5,2.8,4.5c0.6,0,1.5-0.1,2.4-0.4L126.9,57.7z"/>
	<path d="M131.6,61.7c1,0.4,1.5,0.8,3.6,0.8c2.3,0,3.8-0.8,5-3.9l0.3-0.8l-11.9-30.3h9l7.1,20.2l7-20.2h8.7l-11.9,32.3
		c-2.6,7.1-6.1,10.6-11.7,10.6c-2.2,0-3.4-0.5-4.5-0.9L131.6,61.7z"/>
	<path d="M161.9,69.8V27.5h8.2v3.6c1.8-2.9,4.5-4.5,8-4.5c7.3,0,13.2,5.5,13.2,16.2c0,10.7-6.2,16.2-13.5,16.2
		c-2.5,0-5.4-0.8-7.1-3.5v14.4H161.9z M176.2,51.6c3.8,0,6.2-2.8,6.2-8.8c0-6-2.7-8.8-6.2-8.8s-6.2,2.8-6.2,8.8
		C170,48.8,172.5,51.6,176.2,51.6z"/>
	<path d="M201.7,45.3c0.2,4.2,3,6.3,6.9,6.3c2.8,0,4.6-1.6,5.4-3.5l8.2,1.7c-2.3,6.1-6.8,9.2-14.2,9.2c-7.9,0-15.2-4.9-15.2-16.2
		c0-11.3,7.4-16.2,15.2-16.2c7.7,0,14.7,4.7,14.7,14.9c0,1.8-0.1,3.6-0.1,3.8H201.7z M201.8,39.3h12c-0.2-3.2-2.6-5.4-6-5.4
		C204.9,33.9,202.2,35.9,201.8,39.3z"/>
</g>
</svg>
