<?xml version="1.0" encoding="utf-8"?>
<!-- Generator: Adobe Illustrator 19.2.0, SVG Export Plug-In . SVG Version: 6.00 Build 0)  -->
<svg version="1.1" id="Layer_1" xmlns="http://www.w3.org/2000/svg" xmlns:xlink="http://www.w3.org/1999/xlink" x="0px" y="0px"
	 viewBox="0 0 300 95" style="enable-background:new 0 0 300 95;" xml:space="preserve">
<style type="text/css">
	.st0{fill:#D0D2D3;}
	.st1{fill:#F1F1F2;stroke:#D0D2D3;stroke-miterlimit:10;}
	.st2{fill:none;stroke:#D0D2D3;stroke-miterlimit:10;}
</style>
<g>
	<path class="st0" d="M1,73.4V24.2h3.4v45.9h23.4v3.2H1z"/>
	<path class="st0" d="M80.4,48.7c0,7.8-2,14-5.9,18.5c-3.9,4.5-9.3,6.8-16.1,6.8c-6.8,0-12.2-2.3-16.1-6.8s-5.9-10.7-5.9-18.6
		c0-7.8,2-14,5.9-18.5c3.9-4.5,9.3-6.7,16.1-6.7c6.9,0,12.2,2.3,16.1,6.8C78.5,34.7,80.4,40.9,80.4,48.7z M40.2,48.7
		c0,7,1.6,12.5,4.7,16.3c3.1,3.8,7.6,5.8,13.5,5.8c5.9,0,10.4-1.9,13.6-5.7c3.1-3.8,4.7-9.3,4.7-16.4c0-7.1-1.6-12.5-4.7-16.3
		s-7.6-5.7-13.5-5.7c-5.9,0-10.4,1.9-13.5,5.7C41.8,36.3,40.2,41.7,40.2,48.7z"/>
	<path class="st0" d="M113.8,48.6h18.1V71c-4.8,2-10.1,3-16,3c-7.8,0-13.7-2.2-17.8-6.6c-4.1-4.4-6.2-10.6-6.2-18.6
		c0-5,1-9.4,3.1-13.3c2.1-3.9,5-6.9,8.8-9c3.8-2.1,8.2-3.2,13.2-3.2c5.4,0,10.2,1,14.4,3l-1.4,3.1c-4.3-2-8.7-3-13.2-3
		c-6.5,0-11.6,2-15.4,6c-3.8,4-5.7,9.4-5.7,16.2c0,7.4,1.8,13,5.4,16.7c3.6,3.7,8.9,5.6,15.9,5.6c4.5,0,8.4-0.6,11.5-1.9V51.8h-14.6
		V48.6z"/>
	<path class="st0" d="M188.3,48.7c0,7.8-1.9,14-5.9,18.5c-3.9,4.5-9.3,6.8-16.1,6.8c-6.8,0-12.2-2.3-16.1-6.8
		c-3.9-4.5-5.9-10.7-5.9-18.6c0-7.8,2-14,5.9-18.5c3.9-4.5,9.3-6.7,16.1-6.7c6.9,0,12.2,2.3,16.1,6.8
		C186.4,34.7,188.3,40.9,188.3,48.7z M148.1,48.7c0,7,1.6,12.5,4.7,16.3c3.1,3.8,7.6,5.8,13.5,5.8c5.9,0,10.4-1.9,13.6-5.7
		c3.1-3.8,4.7-9.3,4.7-16.4c0-7.1-1.6-12.5-4.7-16.3s-7.6-5.7-13.5-5.7c-5.9,0-10.4,1.9-13.5,5.7C149.7,36.3,148.1,41.7,148.1,48.7z
		"/>
</g>
<ellipse transform="matrix(0.7071 -0.7071 0.7071 0.7071 33.445 178.3417)" class="st1" cx="232" cy="48.8" rx="35.9" ry="35.9"/>
<line class="st2" x1="206.6" y1="23.4" x2="257.4" y2="74.2"/>
<line class="st2" x1="257.4" y1="23.4" x2="206.6" y2="74.2"/>
</svg>
